<mxfile host="app.diagrams.net" modified="2021-04-06T16:40:34.023Z" agent="5.0 (Windows NT 10.0; Win64; x64) AppleWebKit/537.36 (KHTML, like Gecko) Chrome/88.0.4324.150 Safari/537.36" etag="PhQjacv6YiXooKDwjb2-" version="14.5.7" type="github">
  <diagram id="0GZUdj3JqTnzrkl8fCgO" name="Page-1">
    <mxGraphModel dx="1221" dy="682" grid="1" gridSize="10" guides="1" tooltips="1" connect="1" arrows="1" fold="1" page="1" pageScale="1" pageWidth="827" pageHeight="1169" math="0" shadow="0">
      <root>
        <mxCell id="0" />
        <mxCell id="1" parent="0" />
        <mxCell id="p2l2JOIQV3Yki0eWCkU6-1" value="" style="rounded=0;whiteSpace=wrap;html=1;" vertex="1" parent="1">
          <mxGeometry x="20" y="160" width="770" height="970" as="geometry" />
        </mxCell>
        <mxCell id="p2l2JOIQV3Yki0eWCkU6-2" value="" style="rounded=0;whiteSpace=wrap;html=1;fontSize=24;shadow=0;sketch=0;glass=0;dashed=1;" vertex="1" parent="1">
          <mxGeometry x="110" y="590" width="640" height="290" as="geometry" />
        </mxCell>
        <mxCell id="p2l2JOIQV3Yki0eWCkU6-3" style="edgeStyle=none;rounded=0;orthogonalLoop=1;jettySize=auto;html=1;" edge="1" parent="1" source="p2l2JOIQV3Yki0eWCkU6-5" target="p2l2JOIQV3Yki0eWCkU6-1">
          <mxGeometry relative="1" as="geometry" />
        </mxCell>
        <mxCell id="p2l2JOIQV3Yki0eWCkU6-4" style="edgeStyle=orthogonalEdgeStyle;rounded=0;orthogonalLoop=1;jettySize=auto;html=1;startArrow=none;startFill=0;endArrow=classic;endFill=1;fontSize=24;" edge="1" parent="1" source="p2l2JOIQV3Yki0eWCkU6-5" target="p2l2JOIQV3Yki0eWCkU6-14">
          <mxGeometry relative="1" as="geometry">
            <mxPoint x="170" y="1010" as="targetPoint" />
            <Array as="points">
              <mxPoint x="80" y="1100" />
              <mxPoint x="80" y="452" />
            </Array>
          </mxGeometry>
        </mxCell>
        <mxCell id="p2l2JOIQV3Yki0eWCkU6-37" value="5V" style="edgeLabel;html=1;align=center;verticalAlign=middle;resizable=0;points=[];fontSize=24;" vertex="1" connectable="0" parent="p2l2JOIQV3Yki0eWCkU6-4">
          <mxGeometry x="-0.0069" y="4" relative="1" as="geometry">
            <mxPoint as="offset" />
          </mxGeometry>
        </mxCell>
        <mxCell id="p2l2JOIQV3Yki0eWCkU6-5" value="&lt;font style=&quot;font-size: 24px&quot;&gt;USB&lt;/font&gt;" style="rounded=0;whiteSpace=wrap;html=1;" vertex="1" parent="1">
          <mxGeometry x="340" y="1070" width="120" height="60" as="geometry" />
        </mxCell>
        <mxCell id="p2l2JOIQV3Yki0eWCkU6-9" style="edgeStyle=orthogonalEdgeStyle;rounded=0;orthogonalLoop=1;jettySize=auto;html=1;startArrow=classic;startFill=1;" edge="1" parent="1" target="p2l2JOIQV3Yki0eWCkU6-15">
          <mxGeometry relative="1" as="geometry">
            <mxPoint x="449" y="720" as="sourcePoint" />
          </mxGeometry>
        </mxCell>
        <mxCell id="p2l2JOIQV3Yki0eWCkU6-14" value="&lt;font style=&quot;font-size: 24px&quot;&gt;步进电机驱动IC&lt;/font&gt;" style="rounded=0;whiteSpace=wrap;html=1;" vertex="1" parent="1">
          <mxGeometry x="263.5" y="380" width="171" height="144" as="geometry" />
        </mxCell>
        <mxCell id="p2l2JOIQV3Yki0eWCkU6-15" value="&lt;font style=&quot;font-size: 24px&quot;&gt;OLED显示&lt;/font&gt;" style="rounded=1;whiteSpace=wrap;html=1;" vertex="1" parent="1">
          <mxGeometry x="550" y="690" width="180" height="60" as="geometry" />
        </mxCell>
        <mxCell id="p2l2JOIQV3Yki0eWCkU6-18" style="edgeStyle=orthogonalEdgeStyle;rounded=0;orthogonalLoop=1;jettySize=auto;html=1;startArrow=classic;startFill=1;fontSize=24;endArrow=none;endFill=0;exitX=0.498;exitY=1;exitDx=0;exitDy=0;exitPerimeter=0;entryX=0.5;entryY=0;entryDx=0;entryDy=0;" edge="1" parent="1" source="p2l2JOIQV3Yki0eWCkU6-22" target="p2l2JOIQV3Yki0eWCkU6-14">
          <mxGeometry relative="1" as="geometry">
            <mxPoint x="364.58" y="280" as="sourcePoint" />
            <mxPoint x="364.58" y="413" as="targetPoint" />
            <Array as="points" />
          </mxGeometry>
        </mxCell>
        <mxCell id="p2l2JOIQV3Yki0eWCkU6-22" value="&lt;font style=&quot;font-size: 24px&quot;&gt;2相4线接口&lt;/font&gt;" style="rounded=1;whiteSpace=wrap;html=1;" vertex="1" parent="1">
          <mxGeometry x="224" y="240" width="250" height="60" as="geometry" />
        </mxCell>
        <mxCell id="p2l2JOIQV3Yki0eWCkU6-36" style="edgeStyle=orthogonalEdgeStyle;rounded=0;orthogonalLoop=1;jettySize=auto;html=1;entryX=0.5;entryY=1;entryDx=0;entryDy=0;startArrow=none;startFill=0;" edge="1" parent="1" source="p2l2JOIQV3Yki0eWCkU6-25" target="p2l2JOIQV3Yki0eWCkU6-14">
          <mxGeometry relative="1" as="geometry" />
        </mxCell>
        <mxCell id="p2l2JOIQV3Yki0eWCkU6-46" style="edgeStyle=orthogonalEdgeStyle;rounded=0;orthogonalLoop=1;jettySize=auto;html=1;startArrow=none;startFill=0;fontSize=24;" edge="1" parent="1" source="p2l2JOIQV3Yki0eWCkU6-25" target="p2l2JOIQV3Yki0eWCkU6-2">
          <mxGeometry relative="1" as="geometry" />
        </mxCell>
        <mxCell id="p2l2JOIQV3Yki0eWCkU6-25" value="&lt;span style=&quot;font-size: 24px&quot;&gt;N32L406&lt;/span&gt;" style="rounded=0;whiteSpace=wrap;html=1;" vertex="1" parent="1">
          <mxGeometry x="249" y="630" width="200" height="170" as="geometry" />
        </mxCell>
        <mxCell id="p2l2JOIQV3Yki0eWCkU6-29" style="edgeStyle=orthogonalEdgeStyle;rounded=0;orthogonalLoop=1;jettySize=auto;html=1;startArrow=classic;startFill=1;endArrow=none;endFill=0;fontSize=24;" edge="1" parent="1" source="p2l2JOIQV3Yki0eWCkU6-32">
          <mxGeometry relative="1" as="geometry">
            <mxPoint x="300" y="1100" as="targetPoint" />
          </mxGeometry>
        </mxCell>
        <mxCell id="p2l2JOIQV3Yki0eWCkU6-30" value="" style="edgeStyle=orthogonalEdgeStyle;rounded=0;orthogonalLoop=1;jettySize=auto;html=1;startArrow=none;startFill=0;endArrow=classic;endFill=1;fontSize=24;" edge="1" parent="1" source="p2l2JOIQV3Yki0eWCkU6-32" target="p2l2JOIQV3Yki0eWCkU6-2">
          <mxGeometry relative="1" as="geometry">
            <Array as="points">
              <mxPoint x="388" y="920" />
              <mxPoint x="388" y="920" />
            </Array>
          </mxGeometry>
        </mxCell>
        <mxCell id="p2l2JOIQV3Yki0eWCkU6-31" value="3.3V" style="edgeLabel;html=1;align=center;verticalAlign=middle;resizable=0;points=[];fontSize=24;" vertex="1" connectable="0" parent="p2l2JOIQV3Yki0eWCkU6-30">
          <mxGeometry x="-0.265" relative="1" as="geometry">
            <mxPoint x="26.48" y="-14.48" as="offset" />
          </mxGeometry>
        </mxCell>
        <mxCell id="p2l2JOIQV3Yki0eWCkU6-32" value="LDO" style="rounded=0;whiteSpace=wrap;html=1;fontSize=24;" vertex="1" parent="1">
          <mxGeometry x="340" y="950" width="95" height="60" as="geometry" />
        </mxCell>
        <mxCell id="p2l2JOIQV3Yki0eWCkU6-41" style="edgeStyle=orthogonalEdgeStyle;rounded=0;orthogonalLoop=1;jettySize=auto;html=1;entryX=1;entryY=0.75;entryDx=0;entryDy=0;startArrow=none;startFill=0;fontSize=24;" edge="1" parent="1" source="p2l2JOIQV3Yki0eWCkU6-38" target="p2l2JOIQV3Yki0eWCkU6-25">
          <mxGeometry relative="1" as="geometry" />
        </mxCell>
        <mxCell id="p2l2JOIQV3Yki0eWCkU6-38" value="&lt;span style=&quot;font-size: 24px&quot;&gt;按键X3&lt;/span&gt;" style="rounded=1;whiteSpace=wrap;html=1;" vertex="1" parent="1">
          <mxGeometry x="550" y="790" width="180" height="60" as="geometry" />
        </mxCell>
        <mxCell id="p2l2JOIQV3Yki0eWCkU6-40" value="" style="edgeStyle=orthogonalEdgeStyle;rounded=0;orthogonalLoop=1;jettySize=auto;html=1;startArrow=none;startFill=0;fontSize=24;" edge="1" parent="1" source="p2l2JOIQV3Yki0eWCkU6-39" target="p2l2JOIQV3Yki0eWCkU6-25">
          <mxGeometry relative="1" as="geometry" />
        </mxCell>
        <mxCell id="p2l2JOIQV3Yki0eWCkU6-39" value="&lt;span style=&quot;font-size: 24px&quot;&gt;电位器&lt;/span&gt;" style="rounded=1;whiteSpace=wrap;html=1;" vertex="1" parent="1">
          <mxGeometry x="120" y="685" width="80" height="60" as="geometry" />
        </mxCell>
        <mxCell id="p2l2JOIQV3Yki0eWCkU6-43" value="" style="edgeStyle=orthogonalEdgeStyle;rounded=0;orthogonalLoop=1;jettySize=auto;html=1;startArrow=none;startFill=0;fontSize=24;" edge="1" parent="1" source="p2l2JOIQV3Yki0eWCkU6-42" target="p2l2JOIQV3Yki0eWCkU6-25">
          <mxGeometry relative="1" as="geometry">
            <Array as="points">
              <mxPoint x="225" y="810" />
              <mxPoint x="225" y="760" />
            </Array>
          </mxGeometry>
        </mxCell>
        <mxCell id="p2l2JOIQV3Yki0eWCkU6-42" value="&lt;span style=&quot;font-size: 24px&quot;&gt;SWD&lt;/span&gt;" style="rounded=1;whiteSpace=wrap;html=1;" vertex="1" parent="1">
          <mxGeometry x="120" y="780" width="80" height="60" as="geometry" />
        </mxCell>
        <mxCell id="p2l2JOIQV3Yki0eWCkU6-45" value="" style="edgeStyle=orthogonalEdgeStyle;rounded=0;orthogonalLoop=1;jettySize=auto;html=1;startArrow=none;startFill=0;fontSize=24;" edge="1" parent="1" source="p2l2JOIQV3Yki0eWCkU6-44" target="p2l2JOIQV3Yki0eWCkU6-25">
          <mxGeometry relative="1" as="geometry">
            <Array as="points">
              <mxPoint x="225" y="630" />
              <mxPoint x="225" y="670" />
            </Array>
          </mxGeometry>
        </mxCell>
        <mxCell id="p2l2JOIQV3Yki0eWCkU6-44" value="&lt;span style=&quot;font-size: 24px&quot;&gt;LED&lt;/span&gt;" style="rounded=1;whiteSpace=wrap;html=1;" vertex="1" parent="1">
          <mxGeometry x="120" y="600" width="80" height="60" as="geometry" />
        </mxCell>
      </root>
    </mxGraphModel>
  </diagram>
</mxfile>
